/* XPM */
static char *_6627__1__removebg_preview1658766081[] = {
/* columns rows colors chars-per-pixel */
"50 50 232 2 ",
"   c None",
".  c #191D18",
"X  c #0E0D04",
"o  c #19291B",
"O  c #2E281B",
"+  c #151C22",
"@  c #1A3731",
"#  c #192B25",
"$  c #252C23",
"%  c #242E2B",
"&  c #24332C",
"*  c #2D3A2E",
"=  c #263527",
"-  c #333A2D",
";  c #37372B",
":  c #2D3B34",
">  c #243535",
",  c #323A35",
"<  c #332421",
"1  c #731805",
"2  c #542717",
"3  c #772608",
"4  c #792D13",
"5  c #7D3318",
"6  c #583A2B",
"7  c #4F392E",
"8  c #4E180E",
"9  c #1B4937",
"0  c #1E4A2F",
"q  c #244334",
"w  c #2A4438",
"e  c #364537",
"r  c #334833",
"t  c #4B4336",
"y  c #4C412D",
"u  c #724C32",
"i  c #1E3942",
"p  c #353C44",
"a  c #253F40",
"s  c #1E474D",
"d  c #29474B",
"f  c #384947",
"g  c #245D43",
"h  c #2D5848",
"j  c #395549",
"k  c #3A5656",
"l  c #3A4D51",
"z  c #2C654D",
"x  c #38644D",
"c  c #2E6D5A",
"v  c #3C5D62",
"b  c #3B6966",
"n  c #377369",
"m  c #434948",
"M  c #445B4C",
"N  c #475746",
"B  c #454B53",
"V  c #435B55",
"C  c #445757",
"Z  c #534F43",
"A  c #6C5646",
"S  c #4A674C",
"D  c #466455",
"F  c #546659",
"G  c #56745C",
"H  c #4E765C",
"J  c #696C55",
"K  c #575A6A",
"L  c #475D6A",
"P  c #496A66",
"I  c #576568",
"U  c #467668",
"Y  c #597A67",
"T  c #586974",
"R  c #4C7B73",
"E  c #597A76",
"W  c #686D6A",
"Q  c #687568",
"!  c #647572",
"~  c #637C7F",
"^  c #796566",
"/  c #841D0A",
"(  c #862A0B",
")  c #972C0B",
"_  c #83320D",
"`  c #98350B",
"'  c #8A2D19",
"]  c #9B2219",
"[  c #8B3613",
"{  c #953B15",
"}  c #993815",
"|  c #A52904",
" . c #A73608",
".. c #B63B09",
"X. c #A63A15",
"o. c #A4201C",
"O. c #AB1322",
"+. c #8B3429",
"@. c #AF2834",
"#. c #D8272D",
"$. c #974417",
"%. c #9F440F",
"&. c #AD420B",
"*. c #BA4608",
"=. c #A84717",
"-. c #B64917",
";. c #A6501E",
":. c #B8571A",
">. c #BD6118",
",. c #9A4926",
"<. c #855539",
"1. c #93502F",
"2. c #AC4227",
"3. c #AA532B",
"4. c #B95824",
"5. c #B64F35",
"6. c #9A653B",
"7. c #BB612A",
"8. c #B6663A",
"9. c #B46933",
"0. c #C74C0D",
"q. c #C74915",
"w. c #C15817",
"e. c #DB4F17",
"r. c #D6671A",
"t. c #C96418",
"y. c #E16C19",
"u. c #E47813",
"i. c #D24F2E",
"p. c #C96725",
"a. c #D66C25",
"s. c #D97529",
"d. c #C56738",
"f. c #CD743A",
"g. c #D87834",
"h. c #C97B29",
"j. c #E77B23",
"k. c #F17C2C",
"l. c #8E6B50",
"z. c #A7784C",
"x. c #B77D67",
"c. c #90665D",
"v. c #F05B45",
"b. c #C97644",
"n. c #C17A54",
"m. c #C76643",
"M. c #F56E5A",
"N. c #CE5D62",
"B. c #FC7A7C",
"V. c #D44D4A",
"C. c #4C8577",
"Z. c #54897D",
"A. c #578478",
"S. c #6B8978",
"D. c #73887A",
"F. c #64826F",
"G. c #EB8114",
"H. c #DD802F",
"J. c #F28A28",
"K. c #EA8534",
"L. c #F3923A",
"P. c #FB8E39",
"I. c #FAA636",
"U. c #94A26C",
"Y. c #9D8D75",
"T. c #D48F54",
"R. c #E68944",
"E. c #F59A4B",
"W. c #FAAB4C",
"Q. c #D09472",
"!. c #E49372",
"~. c #E9A772",
"^. c #FCB66D",
"/. c #576C83",
"(. c #4B7780",
"). c #647886",
"_. c #727B8C",
"`. c #558C84",
"'. c #5A9788",
"]. c #56948B",
"[. c #648D8C",
"{. c #668884",
"}. c #66938B",
"|. c #67998B",
" X c #76958A",
".X c #6D9D93",
"XX c #639A97",
"oX c #729294",
"OX c #749E94",
"+X c #718493",
"@X c #5CAB92",
"#X c #5EA289",
"$X c #62A289",
"%X c #67A995",
"&X c #69B29B",
"*X c #79AF9B",
"=X c #6984A7",
"-X c #7292A9",
";X c #7BB3AC",
":X c #75B6A9",
">X c #71B3A7",
",X c #79CBB2",
"<X c #73C5AF",
"1X c #7FDBC2",
"2X c #839387",
"3X c #8D938A",
"4X c #89A796",
"5X c #A7B086",
"6X c #8999A2",
"7X c #84BBAD",
"8X c #95ABAB",
"9X c #A6B3B4",
"0X c #AEB6B5",
"qX c #C09B88",
"wX c #F88F87",
"eX c #DAA594",
"rX c #FBB394",
"tX c #DAB9A7",
"yX c #81CEBC",
"uX c #B7C5BE",
"iX c #FDC78D",
"pX c #F7C99C",
"aX c #C5C3BC",
"sX c #DAC5B7",
"dX c #F5C9AC",
"fX c #F4CABA",
"gX c #AEBFC0",
"hX c #B8CBC8",
"jX c #C8D6D6",
"kX c #CAD5D4",
"lX c #E4E0DD",
"zX c #EDECEF",
/* pixels */
"                                                                                                    ",
"                                                                                                    ",
"                                                                                                    ",
"                                                                        N.wX                        ",
"                                                                    5.@.@.#.B.rX                    ",
"                                                                      O.] o.#.v.fX                  ",
"                                                                      =.=.;.5.V.wX                  ",
"                                                                    :.*.$.$.' c.eX                  ",
"                                                                  ` ` &.| o.+.+.Q.                  ",
"                                                                -.) }  .0./ X.i.V.                  ",
"                                                              8.*.}  ...0.{ m.M.!.                  ",
"                4X X}.}.[.[.}.%X                            d. .-.)  .....w.g.!.                    ",
"            S.C.C.C.A.A.}.{.Z.A..X                          =.[ }  . .| X.r.E.^.                    ",
"              S.r k H P H C.Z.'.'.%X  OXF.                8.` :.X.) | / w.a.g.E.                    ",
"            w - E A.`.}.%X|.|.$X%X&X%XOXH S.              ;.4.*.[ ( | %.r.K.K.E.iX                  ",
"          q w {.{.A.oX[..X7X7X%X%X&X&X'.'.D             !.:.a. ._ X. .t.j.H.L.k.iX                  ",
"      }.9 D {.k E OX~ `.XX&X:X<X,X,X&X$X;X`.OX          ~.a.q.} 4 q. .>.J.a.P.j.rX                  ",
"    ;Xc  XR d : w w R XX`.C.].@X,X1XyX@X#X>XOX          R.a.:.4 &.e.) 4.J.s.J.u.iX                  ",
"    .X  ~ l     j XX].b R '..X$X@X&X,X<X#XXX|.9XhXtX  pXR.R.4.5 :.e...:.H.p.H.G.iX                  ",
"        k R     -Xn l 4X8X[.Y '.yX>X%X%X:XhXhXaXjX9XsXeXT.b.3.X.0. .q.;.p.:.j.u.iX                  ",
"      oXT       s , 6XoXP j C.7X*X*X;X'.`.jXzX0XgXaXtXQ.T.f.3.q.t.h.a.-.=.=.j.r.pX                  ",
"      E         m ! ).: j U Z.C.U n C.Z.}.jXkX8X0XlXtXT.R.m.} 9.W.I.s.X._ } t.y.dX                  ",
"      oX        ! I $ M U z g z 9 z z 0  XjX0X3XtXzXqXb.9.7.,.~.W.K.d.X.{ X.4.y.dX                  ",
"                ! W M Z.g 0 q w x U U j ! 2XQ D.3XqXz.8.,.{ <.^.K.a.w.} ' } ,.5.sX                  ",
"                  e c z o $ j V D V V f f S J 3XY.z.z.2.2.) u T.d.w.X.) 1 1 A c.                    ",
"                  Q A.o f A.P V I C C f M N Q {.c.a.7.[ =.` 7 _._.T 2.' 8 2 K 6X                    ",
"                    F *  XD k E C % . , N m F P u :.;.4 =.} < =X_.-XL B B p T gX                    ",
"                      D.P k {.I % X X - - N f ; ' { ( 3 -.$.+ <.+X=X/.T C > 6X                      ",
"                      A.f C [.V . $ o - $ j j 7 ( { { [ 3.y t a.1.^ K K & p                         ",
"                          `.b = & B $ e = D D y 3 4 $.1.B d 6.g.7.;.6 f o D.                        ",
"                              S. Xw 2 w 9 e F w 2 7 6 u t i l.L.g.6 l : S.                          ",
"                                  A u y $ * Y @ - r f f B k z.f.Z l , Q                             ",
"                                  U.5XY.< r E w # v L P R v ; . P I W                               ",
"                                        F r S e . & + > = $ : & /.).                                ",
"                                          @ j S N - : - e G N E                                     ",
"                                          U ! D.S G N D G G                                         ",
"                                                h j F.G H                                           ",
"                                                  r F.H S.                                          ",
"                                                  A |.J                                             ",
"                                                      D.                                            ",
"                                                                                                    ",
"                                                                                                    ",
"                                                                                                    ",
"                                                                                                    ",
"                                                                                                    ",
"                                                                                                    ",
"                                                                                                    ",
"                                                                                                    ",
"                                                                                                    ",
"                                                                                                    "
};
