/* XPM */
static char *gate__1_1658762065[] = {
/* columns rows colors chars-per-pixel */
"50 50 239 2 ",
"   c #0C0303",
".  c #0E0A04",
"X  c #0E0309",
"o  c #0E0A0A",
"O  c #060000",
"+  c #120705",
"@  c #130906",
"#  c #12070C",
"$  c #150B0C",
"%  c #180D0C",
"&  c #190C06",
"*  c #1A120D",
"=  c #171406",
"-  c #140C12",
";  c #190F11",
":  c #1B1212",
">  c #1F1912",
",  c #1B1118",
"<  c #0F0A10",
"1  c #22190D",
"2  c #221C14",
"3  c #211519",
"4  c #241C1B",
"5  c #2B1E15",
"6  c #252015",
"7  c #2D2315",
"8  c #25221A",
"9  c #2B241B",
"0  c #2D2A1A",
"q  c #2C2913",
"w  c #31251C",
"e  c #332B1C",
"r  c #322D17",
"t  c #33331C",
"y  c #39321F",
"u  c #25230C",
"i  c #2D2423",
"p  c #2D2A24",
"a  c #2E2A29",
"s  c #2A262A",
"d  c #342B24",
"f  c #3A2D23",
"g  c #352D2B",
"h  c #3A2D2B",
"j  c #332724",
"k  c #3A3325",
"l  c #36322A",
"z  c #3B342C",
"x  c #3E3A2B",
"c  c #383723",
"v  c #362E35",
"b  c #353333",
"n  c #3C3432",
"m  c #3D3A34",
"M  c #39353A",
"N  c #40352D",
"B  c #423B2D",
"V  c #413B25",
"C  c #413533",
"Z  c #433C33",
"A  c #453D3A",
"S  c #483C38",
"D  c #483D37",
"F  c #3F461D",
"G  c #3D402D",
"H  c #45412D",
"J  c #464926",
"K  c #4B512A",
"L  c #56572A",
"P  c #464235",
"I  c #4B4434",
"U  c #45413A",
"Y  c #4B433C",
"T  c #4E4938",
"R  c #544C35",
"E  c #51463B",
"W  c #524B3D",
"Q  c #5A4D3C",
"!  c #534535",
"~  c #5B523E",
"^  c #585936",
"/  c #4F4F31",
"(  c #62533E",
")  c #615D3F",
"_  c #604F3D",
"`  c #5D623B",
"'  c #6B6C3C",
"]  c #626437",
"[  c #3C3642",
"{  c #423C46",
"}  c #4C4544",
"|  c #4D4944",
" . c #494743",
".. c #514642",
"X. c #544C43",
"o. c #5A4E43",
"O. c #544C4A",
"+. c #5A4F49",
"@. c #565142",
"#. c #5C5243",
"$. c #5D5B43",
"%. c #55534C",
"&. c #5C534A",
"*. c #5C5A4C",
"=. c #56584A",
"-. c #555255",
";. c #5C5453",
":. c #5E5D53",
">. c #5E5C5B",
",. c #4F5042",
"<. c #625543",
"1. c #645B45",
"2. c #62564C",
"3. c #695749",
"4. c #645B4B",
"5. c #6B5D4C",
"6. c #635B54",
"7. c #645C5A",
"8. c #655A55",
"9. c #705E48",
"0. c #5F6052",
"q. c #656244",
"w. c #64634B",
"e. c #6C634C",
"r. c #6D6A4B",
"t. c #6A6A47",
"y. c #716948",
"u. c #76744B",
"i. c #656254",
"p. c #6B6253",
"a. c #65605C",
"s. c #6B635C",
"d. c #6C6C5A",
"f. c #726452",
"g. c #746C52",
"h. c #71645E",
"j. c #716B5C",
"k. c #796A57",
"l. c #767052",
"z. c #7D785D",
"x. c #79735A",
"c. c #6F7255",
"v. c #5C5D62",
"b. c #605E65",
"n. c #6B6562",
"m. c #6D6A63",
"M. c #696868",
"N. c #716661",
"B. c #736A64",
"V. c #756D6A",
"C. c #786E65",
"Z. c #7B7464",
"A. c #75716C",
"S. c #7B736D",
"D. c #7A7569",
"F. c #6C6B74",
"G. c #757376",
"H. c #7B7472",
"J. c #7D7A74",
"K. c #7D7A7C",
"L. c #76747D",
"P. c #756F79",
"I. c #82775F",
"U. c #857563",
"Y. c #837D65",
"T. c #887E65",
"R. c #847E6B",
"E. c #8A7E69",
"W. c #887767",
"Q. c #847C73",
"!. c #847C79",
"~. c #887F79",
"^. c #7F807A",
"/. c #86806C",
"(. c #8B846E",
"). c #858166",
"_. c #8A8272",
"`. c #86827B",
"'. c #8A837D",
"]. c #8C8776",
"[. c #928B7D",
"{. c #918A76",
"}. c #91856F",
"|. c #7C7B80",
" X c #817F80",
".X c #858384",
"XX c #8B8582",
"oX c #8C8A84",
"OX c #8B898B",
"+X c #938C83",
"@X c #938E8B",
"#X c #998F85",
"$X c #9B9487",
"%X c #95928C",
"&X c #9B948A",
"*X c #989488",
"=X c #8D8A93",
"-X c #9C9692",
";X c #9D9A93",
":X c #989599",
">X c #948F93",
",X c #A09A8D",
"<X c #A49D94",
"1X c #A59C9A",
"2X c #A9A396",
"3X c #ABA49B",
"4X c #AEA89C",
"5X c #A8A498",
"6X c #B3AE98",
"7X c #A59FA1",
"8X c #AEABA3",
"9X c #ACA8A7",
"0X c #B2ACA2",
"qX c #B4AFAD",
"wX c #B5B2A2",
"eX c #B6B5AB",
"rX c #BCB3AB",
"tX c #BBB8A9",
"yX c #BDBBB3",
"uX c #B9B4B5",
"iX c #B0ADB4",
"pX c #C0B9AD",
"aX c #C3BDB2",
"sX c #C9BDB5",
"dX c #C6C1B4",
"fX c #CBC5BB",
"gX c #CEC8BB",
"hX c #C8C4B8",
"jX c #D0CABF",
"kX c #C7C2AF",
"lX c #C1BCC1",
"zX c #CBC6C6",
"xX c #D3CDC3",
"cX c #D3CCC7",
"vX c #D9D4C9",
"bX c #DBD6D6",
"nX c #E5DED5",
"mX c #E3DBCE",
"MX c #EDEAE3",
/* pixels */
"9.k.I.( I.( _ y.<.e.E.5.W.W.U.W.U.E.I.I.}.E.I.E.E.I.k.f.e.e.e.e.k.f.k.3.5.5.Q <.Q 5.! W I 2.o.o.~ R ",
"( y.( 3.f.9.( 3.5.p.f.#.5.3.3.3.9.5.<._ 3.<._ 1.Q _ <.<.1.3.( ( Q <.f.<.3.f.#.3.o.#.E o.o.o.I X.Q R ",
"( f.Q ( <.~ 1.~ ~ 1.Q 3.<.3.3.3.<.Q <.3.<.<.3.3.Q <.3.e.5.3.1.<.<.5.f.Q 3.f.3.4.5.2.6.6.i.&.+.2.#.$.",
"! f.D ( ! I $.~ I *.X.j.o.o.o.o.<.#.f.k.3.5.f.3.f.e.5.3.4.1.3.5.5.<.#.! E o.E 4.P D X.Z m S Y Y D Y ",
"V B q ~ R R P c T ~ W %.5 5 5 5 7 5 N f 5 w j 1 w w w 5 7 7 e f k 7 7 q e 0 2 Z N.V.J.%. .V.K.G.S { ",
"{.#.P *X3X2X6.P J.m.D.i.h ..+.3.&.o.o.S S <.3.o.3.2.o.+.2.2.&.o.$.~ 2.p.s.&.B @.'.+X%XM.M OX:X>X-.} ",
"1XB x 5XdXeXP 6 A.%.A.A j 8.N.B.C.N.2.{ 3.h.h.N.h.h.h.h.N.h.8.o.W 2.d.s.s.4.n b @X>X>XG.b =X=X:X-.n ",
"4Xw l 4XhXyXx l `.%.`.m g 7.7.7.8.8.S w N S C N C N h N S S h j z X.i.X.=.:.m s .X.X.XK.s OX|.=X8.v ",
"0XN h 8XhXyXG G  X .^. .n { W.V.N.C $ & % +   @ # + # + + + # + > = 6.5X%X%.l  .^.G..X|.[ .XF.9XV.z ",
"pXS C rXMXcX-.p OX .G. .S  XlX7XS 5 # + $ + + % # & & # & # & & .   l A.8X@X .-.=XG.|..X-.:Xv.M.G.x ",
"'...Y `.;XoX%.m A.G J.M.O.1X7XC - # # $ $ $ $ ; % ; ; $ ; $ $ $ * . o 4 XX-X .n.^.^.|.L.b |.-.v.D.m ",
"z z z Z l l U m :XM.oXm.+. X7.    # ; $ $ % - # % % $ ; $ ; $ ; : - # O  .G.A n.:X9XiX=XG OXOX8XD.x ",
"2.D N 5.Q.n.%.p ;X^.`.a.7.H.C ; $ $ ; $ $ : ; . % $ $ $ $ $ ; $ X   4 # i >.| 7..X5X;X^.b %XoX%XH.z ",
"rXo.D 3XnXpXa.z m.m.!.B.H.;.& & % ; $ # $ * $ . $ $ $ $ $ $ $ $ ; X , ; - M ;.;.;XlXqXoXm ;X;XoXH.C ",
"sXD y 3XvXsX} l oXA.oXs.n.h + : $ @ @ $ $ @ @ $ $ $ $ = $ $ $ $ 3 ; X #   3 -.;.;XbXzX%Xd [.<X&XS.C ",
"pXS N 2XfXvXX.l oXs.*Xn.;.3 & $ * $ $ * % . o : $ $ $ $ $ % $ $ X , X 3 , - O.>..XbXvX;Xl [.%X'.V.h ",
"pXP B 3XgXxXO.0 ~.!.@Xn.a.* $ ; $ $ $ $ $ ; # $ $ $ $ $ $ $ $ $ % @ @ - - , [ |. XbXlX=Xn +X[.[.H.g ",
"kXV k 2XvXjX&.m S.V.~.7.6.; $ $ $ $ $ $ $ $ $ $ $ $ $ $ $ $ $ $ & @ # ; - - [ F.=XbXlX Xh [.~.[.B.i ",
"tXB x #XgXpX*.9 `.~.>XB.a.: $ $ $ $ $ - $ $ $ $ $ $ $ $ $ $ $ $ % @ $ , - < [ b.=XlXuX XC #X#X<XV.i ",
"~ 7 B B x B f d @X+X;XV.n.> $ o $ $ $ $ $ $ $ $ $ $ ; # $ $ $ $ & @ $ : o < v v.|.iX1X Xf ~.Q.+XH.g ",
"T 0 B @.@.X.Z 0 V.A.`.s.7.; $ $ $ $ $ $ $ $ $ $ $ $ # ; $ $ $ $ * $ $ % o < M b.|.iX7X!.i U.h.C.V.j ",
"tXW e $XmXjXj.* N.N.!.7.7.; $ - $ $ $ $ $ $ $ $ $ $ $ $ $ $ $ $ % $ @ % o < v M. XlXuX Xv !.B.Q.V.j ",
"gX~ 2 $XhXrXp.9 H.S.XXB.n.: $ $ $ $ $ $ $ $ $ $ $ $ $ $ $ & $ $ & + $ - o < b v.|.lXuX!.j Q.C.S.H.n ",
"].H 7 4XxXgX6.* S.V.XXn.a.: @ # $ $ $ - $ $ $ - $ $ $ $ $ $ $ $ + . $ ; @ X s >. XlXlX Xj Q.W.S.!.M ",
"7 q c <XhXjXp.2 S.s.H.S.7.4   ; $ $ $ $ $ $ $ $ $ $ $ $ $ # $ & $ & $ $ $ $ a a.F.uXeXoXi W.B.N.!.h ",
"e 0 B $XgXhXs.0 7.B.!.7.} * + : $ $ $ $ $ $ $ # ; $ $ $ $ ; # - $ $ @ $ $ o p a.'.zXyX`.j Q.#X+X!.C ",
"#.x B #XxXhXs.* `.%X>XV.8.4 @ - $ $ # $ $ $ $ ; # $ $ $ $ $ $ $ $ $ @ $ $ o p >.M.`.XXD.z +.C.~.;.i ",
"W x t x I B z B Y +.O.O.7.3 O $ $ $ ; $ $ $ $ $ $ $ $ $ $ $ $ $ $ # @ = = o p >.G 0 > l 9 C E f O.4 ",
"~ k 0 c P z z Z g 2.O.A 7.4 + ; ; $ $ $ $ $ $ $ $ $ # ; $ $ $ $ @ $ $ % - . p :.>.eXhXoXh 7.sXzXH.C ",
"i.k d ].jXhXp.1 s.xX9X&.;.4 ; $ # $ $ $ $ $ $ $ $ $ $ $ $ $ ; $ $ $ @ % = . 8 =.m.yXhX*X7 7.gXfX~.n ",
"W e e +XdXaX6.0 ;.bXqX| ..: # # $ $ $ $ $ $ $ $ $ $ $ $ $ $ # $ $ ; $ - $ . 8 =.0.yXhXeXw +.pXzXQ.i ",
"#.k w &XaXfX6.5 2.cX1X+.7.4 # $ ; $ $ $ $ ; $ $ $ $ $ $ $ $ $ $ % ; % ; = O 8 %.0.hXyX<X& C.lXrXXXj ",
"2.h 5 ,XgXgX&.2 *.gX8XO...i   , $ $ $ & $ $ $ + $ & $ $ $ $ $ $ $ $ $ % @ * p U s.8XaX;Xe *.aXpXXXi ",
"O.h j +XaXtXs.m :.xXqXO.S h # 3 $ $ $ $ $ & $ $ $ $ @ $ $ $ $ & $ $ - $ . $ 8 Z B.xXnX2X9 @.aXjXXXp ",
"3.w w +XmXxXi.= j.aX2X#.S C & # $ $ $ $ $ $ $ $ $ $ $ $ $ $ $ # - # $ : # ; d } &.S.s.j.k B j.p.| 8 ",
"&.f e o.j.$.H t c *.W z o.C & & $ $ $ $ $ $ $ $ $ $ $ $ $ $ $ ; # @ - $ @ @ p O.d l 6 Y l c Y k U > ",
"E N y V V r t / t $.W B o.N + & $ $ $ $ $ $ $ $ $ $ $ $ $ ; $ $ : # $ $   O i O...1X3X'.Z 6.4XtX'.p ",
"<.y r I.6X4Xw.u w.6X2Xi.2.D & & $ $ $ $ - $ $ $ $ $ $ $ $ # $ $ ; # $ ; o - C V.7.pXfX&Xd Y 4XjX@Xi ",
"o.V f [.kXgXl.0 ~ aX0Xj.B.o.1 & $ $ $ $ $ $ $ $ $ $ $ $ $ $ $ $ - o # , $ > O.'.~.9X0X8XW @.<X0XJ.8 ",
"o.C N [.6XpXw.0 $.wX5XR.$X8.+ + $ $ $ $ $ $ $ $ $ $ $ $ $ $ $ $ : < # $ . $ { !.s.1XpX2Xl E 3X<X-Xg ",
"%.z 0 oXwXyX0.0 ,.eX5X:.-.Y : $ $ $ $ $ @ $ # $ $ $ @ $ $ $ $ $   $ ; $ $ > g U ..<X6X<Xk P ,X4X1Xs ",
"..c 8 [.yXhX0.8 0.eX;X:.;.| , $ + @ + + + @ @ @ + + @ . + + @ @ : : @   . 4 Y 7.6.2X4X$Xx I $X3XOXg ",
"6.D l ^.5XwX0.8 =.;X`.,.;.6.n j g j g d d d d j j j j d j j j j 8 8 4 > > 9 x W &.R.D.j.k B Z.Z.a.l ",
"4.P p ^ ,.=.G G G d.0.c U O.C g d k d f d k d f e d d d e d e d d z Z m z f l c B T B T H R $.c U m ",
"@.H 0 r t F G ^ / d.t.P P X.W P O.X.W ....O.W O.W W ..W W W ..W U S D Z x B I R I I H / q.q.^ x H W ",
"q.R c J F F F G ^ t.c.t.$.j.D.Z._./._._./._./._.Q./.Q./.Q.Q.Q.Q.]././.D.J./._.].w.1.w.q.r.~ 1.) $.w.",
"^ K K L L K F F F G ` ` L ^.{.(.R.R.Q.R.R.R.R.R.R.R.R.R.R.Y.R.R././.`._._./.D.Z.x.r.g.1.l.) q.t.t.t.",
"L L ^ ] ] L ] ` ` ` t.t.] x.(.z./.R.R.R./.R.R.E.Q.R.R.R.Q.R.R.R./.).D.R./.(.)./.E.w.r.q.).g.q.t.e.] ",
"L L ] ' ' ' I.u.I.' ' ' u.I.I.(.T.E.R.E.R.R./.R.Y.Y.Y.Y.Y.Y.W.Y.Q./.R.R.R.R./.Y.).Z.Y.).Y.).).z.l.r.",
"L ] ' ' ' ' ' ' ' I.I.I.I.I.T.).E.T.).E.E.E.R.E.(.(._.].]._.(.(.R.).E./././.).)._.R./.}.(.].{.(.).z."
};
