/* XPM */
static char *Grass__1_1658761728[] = {
/* columns rows colors chars-per-pixel */
"50 50 136 2 ",
"   c #343F00",
".  c #364100",
"X  c #314800",
"o  c #3F5600",
"O  c #435800",
"+  c #4B5E04",
"@  c #4D5F0C",
"#  c #4C6203",
"$  c #4D640B",
"%  c #4F680D",
"&  c #536507",
"*  c #526905",
"=  c #53660B",
"-  c #556A0C",
";  c #5A6D0C",
":  c #557007",
">  c #567108",
",  c #5C720C",
"<  c #556613",
"1  c #556C12",
"2  c #5A6D13",
"3  c #5D6E1A",
"4  c #5C7314",
"5  c #5E7913",
"6  c #5D7419",
"7  c #5F781D",
"8  c #60740D",
"9  c #64790D",
"0  c #697D0E",
"q  c #606F1A",
"w  c #637514",
"e  c #647A14",
"r  c #6A7C14",
"t  c #63751C",
"y  c #68771C",
"u  c #65791C",
"i  c #6B7D1C",
"p  c #637522",
"a  c #687722",
"s  c #667B21",
"d  c #6B7D23",
"f  c #647729",
"g  c #6B772B",
"h  c #6C7D2A",
"j  c #707F2A",
"k  c #6E7E33",
"l  c #737F33",
"z  c #6D8209",
"x  c #658116",
"c  c #6D8215",
"v  c #6F8A15",
"b  c #67811B",
"n  c #6D821C",
"m  c #6E881D",
"M  c #728515",
"N  c #768A15",
"B  c #798F10",
"V  c #72851C",
"C  c #758A1D",
"Z  c #798D1C",
"A  c #7B9017",
"S  c #77921E",
"D  c #7C921E",
"F  c #678025",
"G  c #6D8223",
"H  c #6E8925",
"J  c #6E822A",
"K  c #728523",
"L  c #758A24",
"P  c #7A8D24",
"I  c #73852B",
"U  c #78872B",
"Y  c #758A2C",
"T  c #7B8D2B",
"R  c #769120",
"E  c #7D9224",
"W  c #7E9925",
"Q  c #77912B",
"!  c #7E922C",
"~  c #7F992D",
"^  c #6D8331",
"/  c #738532",
"(  c #768A31",
")  c #7B8C32",
"_  c #7A8738",
"`  c #7C8D3A",
"'  c #7E9232",
"]  c #7F9833",
"[  c #7D933A",
"{  c #7F8B42",
"}  c #81971D",
"|  c #83991E",
" . c #838F29",
".. c #819525",
"X. c #849A26",
"o. c #889E22",
"O. c #82952B",
"+. c #859A2C",
"@. c #899C2D",
"#. c #818E3B",
"$. c #839533",
"%. c #869933",
"&. c #8A9D34",
"*. c #83953B",
"=. c #89973C",
"-. c #85993A",
";. c #8B9C3B",
":. c #8DA12D",
">. c #92A72E",
",. c #95AB2F",
"<. c #87A134",
"1. c #8DA134",
"2. c #8EAA33",
"3. c #8EA13B",
"4. c #91A535",
"5. c #96AA34",
"6. c #92A43B",
"7. c #95A93C",
"8. c #99AD3D",
"9. c #9AB032",
"0. c #9FB43F",
"q. c #828E43",
"w. c #859342",
"e. c #8C9C42",
"r. c #8A9C48",
"t. c #8FA142",
"y. c #93A543",
"u. c #96A944",
"i. c #9AAD43",
"p. c #95A94A",
"a. c #9AAC4C",
"s. c #9EB244",
"d. c #A0B347",
"f. c #A7BA4F",
"g. c #A1B352",
"h. c #ACC14A",
/* pixels */
"C D X.@.&.O.P Z ..O.6.7.P Z &.d.O.1.:.1.i.<.L %.<.8.P e Q ~ K +.W W 2.2.W z c ~ L &.i V $.$.i.6.+. .",
"Z X.4.7.@.Z Z O.O...O.$.&.%.%.&.O.7.1.+.1.1.E ~ ~ 1.P r ! ! C +.:.S S S W W ~ Q m T $.$.%.O.O.6. .O.",
"O.X.&.7.&.Z C +.O.O.C L ;.O.K P E 4.<.R ~ 1.+.R C +.P c ! P K +.W S v v R <.<.] V K u.%. .U r u.+.%.",
"&.P Z &.&...L  .P ;.P V O.L V &.L +...Z E @.%.~ ~ &.%.~ %.%.! ~ W W W S R ] <.Q P $.a.%. .P V 7. .:.",
"1.E P O.&.T L  .U 6.%.U ;.%.$.i.W P R W P P +.+.7.u.6.6.u.6.] ~ R W W m m ~ ! n Y a.6.;.;.$.3.$.O. .",
"O.&.6.&.O.C L O.%.;.$.O.y.y.O.T <.E X.<.L M Q +.7.<.<.6.y.<.~ K S S v m E ] L > G a.;.-.e.%.3.i U T ",
"L &.3.&.P P O.O.%.%.T O.;.y.T w <.:.6.1.C V +.+.<.E +.3.;.! P n R R R Q ~ ] K 5 G 3.e.*.%.' U d U K ",
"M P  .P T %.-. .T P U T $.t.;.U @.1.s.1.v W 7.%.~ E %.y.&.~ ! E v ~ 2.<.~ L V U $.-.a.*.U T e $.U d ",
"O.P Z C C P P X.4.6.d.C r @.O.4.E +.5.:.&.@.Z X.7.%.C O.7.O.r V r O.&.&.&.@.:.c ..d.d.;.%.U K e.-.Y ",
"$.O.T L L C i i  . .&.U P O.O.%.@.N Z @.8.@.M @.L W ..O.7.&.C P L T &.i.4.O.1.+.&.7.O.O.3.%.d K e.$.",
"O. .L L T T P K U P V U $.T $.O.4.E ..@.4.E 0 ..0 ..&.&.6.1.K r K V  .i.&.M O.&.4.O.P O.u.;.K i i.;.",
" .U i d U $.$.$.$.=.V T ' U ;. .O.5.s.X.P ..C @.9 P &.4.&...V r c M M 4. .9 P @.3.%.$.;.3. .T %.6.&.",
"$.U G K U T U K U y. .) T ) y.T O.5.8...E @.@.s.r M O.&.&. .L Z N P P O.P C @.T 3.$.%.3.$.T &.s.O.O.",
"$.T  .O.%.$. .K V 3.;.O.O.%.6.T 8.@.X...1.&...i.O.C O.1.+.O... .Z O...O.P $.6.T &.T  .$.U  .6.7.&.+.",
"$.O.O.$.%.%.%.%.T %.y.&.%.6.%.&.d.@.@.@.5.4. .4.&...@.&.+.&.%.c Z O...+. .%.y.T T K T $.V L &.O.5.@.",
"4.&.T C Z P %.&.7.+.7.&.$.7.&.i.X.5.s.@.@.8.1.5.L Z O.@.O.i.6.r } @.X.&.&.%.i.=.w K ;.%.r r O...6.O.",
":. .+.N  ...7...5.5...4. .4.7.@.} ,.| o.} } f.} ..Z ..6. .O.7.M P &.&.6.;.y.g.e.j / =.I y K d ) =.$.",
"4.@.4. .....4... .@.i  .M ..@.Z A 9.o.5.:.X.0.} M Z ..&.P +.i.r Z &.4.4.O.T ;.$.=. .$.a y I r w $.) ",
" .+...+.Z  . . . .+. .4...@.&.N Z >.| >.5.X.4.@.0 } O...Z &.i.r } @.4.4.O.M $.%.=.$.$.G d O.P P $.=.",
"Z  .V  .r @.&.4. .@. .6.1.1.6...} >.N X.4.} o.7.N ......Z +.i.Z X.o.X.:.7.M O.%.P O.;.P V $.%.u.y.a.",
" . .V :. .7.6.7. ...O.+.+.O.6. .X.@.Z X.>.Z ..5.:.@.Z ..Z Z &.X.@.} Z Z i.C E P U U &.K r P P ;.$.&.",
"O.P  .6.&.3.%.P O. .O.O.+.T 7. .>.@.X.4.4.Z N X.8.:.N Z ..N X.@.:.X.Z M i.c L U T K U y i $.T T i j ",
"T V  .%.&. . .V $. .$. .%. .i.&.@.E @.8.>...N Z @.:.Z } ..} X...@.4.@.V i.y P T U U U d K =.T T  . .",
"O.V $. .&.T 6.;.P L  .P  .K 6.P @.N @.5.X...} Z M :...} @.o.@.N E 6.7.V i.w U =.L ) e.Y y U I ' U U ",
"Z 7.P +.6.T $.%.;.K , w P r 3.P U U $.%.Z } | } B 9.o.} :.@.+. .+.Z E E ! g.G ) J ( J h / / h h K K ",
"N &.+.&.6. .K U U U T K P i &.U 8 V O.O.@...B z } X.N o.7.Z V C 1.W ~ b b a.Y ( t h h h / J d U K U ",
"r  .6.;.;. .i T y K t.U i U e.;.U O.P L &.&.Z E :.:.P %.3.U d i 3.+.+.r e a.' G 2 p d J J f s ( U Q ",
"L L y.$.) =.T p.d a =.i q  .;.p.$.;.U M &.4...&.%.6.U y y y y q %.L ~ L L p.$.p < a d p s d y F T E ",
"T K ;.$.U ;.%.p.t.d T d t U I ` r T n i ;.%.V K -.y. .j q q j q *.C P P *.-.Y y 2 J d 2 s ) I i n V ",
" .K $.$.T %.%.%.y.P i U d ) y y y P i r ) $.U U ;.*.*.y.$.d *. .+.Y H F ;.Y s d t I d 4 G -.' G i F ",
"$.U P $. .O.&.Z O.E e ) K $.) y U T U d K ) ;.t.K y K ;. .i O.L K O.K t t.Y J ( u y t s ' [ I G G I ",
";.! r O.E ..7.Z Z &.r  .i $.;.a i K ) T U ) =.$.i K K P c L 6.M , %.Y 5 a.-.) *.s 3 6 I -.K w i J I ",
"f.9 0 &.+.&.y.U T O.;.U G ) K ;.T y K %.T c Y 3.L u L Q H t.5 -.x ; -.t d =.' $.9 9 , +.t.J J [ h f ",
"y.c L &. .%.%.r K T $.r U w U K $.r n $.%.$.! ' L i b H b ] 5 L m n Y - J ) ; T E L C 1.%.i s h p 3 ",
"$.P &.6.T $.&.w K T ! y $.& $.y %.T  .%. .$.! i P H 5 b H ] m L L O.y # h Y O L m c L <.L 6 I h h J ",
" .L %.a.=.%.%.i U $.;.U $.w %.K U %.e.O.I T $.n Q Q u b L Y H Y L ) 6 % s [ & i e e C +.i u w./ t d ",
"=.I ) y.;.) P U U U y.%.a U L  .d O.%.d i %.3.m ' %.H b H b G m G I t 3 3 *.y - K m L ! 4 6 *.h < s ",
"e.I j e.$.d y d i w e.) ; K G U %.$.K w i t.;.- Y Q Q i Q L Y T n F y p 6 / d + P V r n ; < h p p J ",
"e.) U ) U a a j d w  .I r i O.K 6.%.V ; r y.] # b e Q 5 Q ] H Y n K p 7 / 7 2 < Q L , e t < h f k h ",
"#.w.w.) I I U U K y L K T w a.i T T K w r ;.-.> n , Y * H Q > 5 G Y t 3 r.< + h t.$.w u K 7 h k / p ",
") T K ' U 6 s d U ; Y ! > > 7., ~ m x x x Q H Q n Q e # 3.u Q F F % F % [ H o 6 ( *.J ^ ( *.p h ^ f ",
"*.-.( Y J s G t U 4 I P r e 1.9 Q x x > > m x b , i L ; t.$.K i ( 1 4 6 ^ 7 X F G ( ) J ( G t t ( I ",
"Y *.J y d I ) y K w i V M x +.9 ] H H x H Q H H * e Q e [ y.u t F 7 $ 4 6 F o ( p t [ J I 2 s 6 K K ",
"Y [ J G G I [ I d G i b c c E x H x x x H ] x x - G G u u -.2 - 6 F 6 % % ( 7 ^ s 7 ) I y 2 d u O. .",
"*.*.( [ ( p I Y y Y r m V C X.Q H x 5 x Q <.G e - ' 5 i 2 G u # F F F % 7 F F s ) J J ( < 6 d G =.#.",
"J I J ` / 3 s J 2 G e Z c Z X.:.H 5 5 5 H ] Y Y - Y 6 J t a J = F % F H [ 4 7 J w.) s ( 1 y t I #.j ",
"$ p p / J p s t u G r Q c S W S 5 : 5 4 7 H F H 1 u u G t J I s F o 7 { [ 6 6 J J J s d s 6 7 I $.U ",
"@ g J / I h d = ) ' L 7.D +.o.c : 4 H H H ( F Y u = d 6 2 I J ) % x F ] F 7 1 1 1 6 a 6 ) 3 t ) V d ",
"  { #.#.=.U U 3 _ l w.g w.e.#.y j 3 p Y ! L m w a d p k @ p / - % [ 4 [ 5 t h h q y @ d j a i ) #.3 ",
". { q.q.e./ _ q l g q.g w.r. .y g 3 y U Q L K u a s p ^ $ f ) < 7 [ % [ p p j a g / < _ T U K #.#.< "
};
